<?xml version="1.0" encoding="UTF-8" standalone="no"?>
<svg width="45px" height="64px" viewBox="0 0 45 64" version="1.1" xmlns="http://www.w3.org/2000/svg" xmlns:xlink="http://www.w3.org/1999/xlink">
    <!-- Generator: Sketch 43.1 (39012) - http://www.bohemiancoding.com/sketch -->
    <title>Beer</title>
    <desc>Created with Sketch.</desc>
    <defs></defs>
    <g id="Symbols" stroke="none" stroke-width="1" fill="none" fill-rule="evenodd">
        <g id="Home_Item/Beer" transform="translate(-60.000000, -15.000000)">
            <g id="Beer" transform="translate(60.000000, 15.000000)">
                <polygon id="Fill-1" fill="#FFFFFF" points="37.704375 62.6535146 7.2875 62.6535146 1.0375 1.55339806 43.954375 1.55339806"></polygon>
                <path d="M0,0.620924272 L6.440625,63.5857398 L38.55125,63.5857398 L44.991875,0.620924272 L0,0.620924272 Z M2.075,2.4856233 L42.916875,2.4856233 L36.858125,61.7216621 L8.134375,61.7216621 L2.075,2.4856233 Z" id="Fill-2" fill="#B5C8C9"></path>
                <polygon id="Fill-3" fill="#FFEB92" points="34.4049375 59.3396194 10.5874375 59.3396194 5.6930625 5.69581359 39.2993125 5.69581359"></polygon>
                <g id="Group-12" transform="translate(11.875000, 12.012738)">
                    <path d="M6.09175,11.0944311 C4.64175,12.3936932 2.40675,12.2787417 1.099875,10.8371883 C-0.207,9.39563495 -0.091375,7.17365437 1.358625,5.87377087 C2.808625,4.57450874 5.043625,4.69008155 6.3505,6.13163495 C7.658,7.57318835 7.54175,9.79516893 6.09175,11.0944311" id="Fill-4" fill="#FFFFFF"></path>
                    <path d="M13.0465625,4.35858641 C12.1128125,5.19555728 10.6734375,5.12099417 9.8321875,4.1926835 C8.9903125,3.26437282 9.0653125,1.83400388 9.9990625,0.99703301 C10.9328125,0.160062136 12.3715625,0.234625243 13.2134375,1.16293592 C14.0546875,2.0912466 13.9803125,3.52161553 13.0465625,4.35858641" id="Fill-6" fill="#FFFFFF"></path>
                    <path d="M8.6796875,20.178765 C8.2128125,20.5969398 7.4934375,20.5602796 7.0721875,20.0961243 C6.6515625,19.6319689 6.6890625,18.9161631 7.1559375,18.4979883 C7.6228125,18.0798136 8.3421875,18.1164738 8.7628125,18.5806291 C9.1840625,19.0447845 9.1465625,19.7605903 8.6796875,20.178765" id="Fill-8" fill="#FFFFFF"></path>
                    <path d="M21.1796875,6.8552699 L21.1796875,6.8552699 C19.8659375,6.75460971 18.7078125,7.7407068 18.6065625,9.04680388 L16.5659375,35.3247068 C16.4640625,36.6308039 17.4559375,37.7815612 18.7696875,37.8828427 L18.7696875,37.8828427 C20.0840625,37.9835029 21.2415625,36.9974058 21.3434375,35.6913087 L23.3840625,9.41340583 C23.4853125,8.10730874 22.4934375,6.9559301 21.1796875,6.8552699" id="Fill-10" fill="#D0F1F6"></path>
                </g>
            </g>
        </g>
    </g>
</svg>