<?xml version="1.0" encoding="UTF-8" standalone="no"?>
<svg width="12px" height="12px" viewBox="0 0 12 12" version="1.1" xmlns="http://www.w3.org/2000/svg" xmlns:xlink="http://www.w3.org/1999/xlink">
    <!-- Generator: Sketch 43.1 (39012) - http://www.bohemiancoding.com/sketch -->
    <title>Combined Shape</title>
    <desc>Created with Sketch.</desc>
    <defs></defs>
    <g id="Symbols" stroke="none" stroke-width="1" fill="none" fill-rule="evenodd">
        <g id="Log_Item/Shot" transform="translate(-286.000000, -16.000000)" fill-rule="nonzero" fill="#979797">
            <path d="M291.911701,20.65764 L287.513786,16.2597246 C287.167486,15.9134251 286.606024,15.9134251 286.259725,16.2597246 C285.913425,16.606024 285.913425,17.1674863 286.259725,17.5137858 L290.65764,21.9117012 L286.515086,26.0542557 C286.168786,26.4005552 286.168786,26.9620175 286.515086,27.3083169 C286.861385,27.6546164 287.422847,27.6546164 287.769147,27.3083169 L291.911701,23.1657624 L296.054256,27.3083169 C296.400555,27.6546164 296.962018,27.6546164 297.308317,27.3083169 C297.654616,26.9620175 297.654616,26.4005552 297.308317,26.0542557 L293.165762,21.9117012 L297.563678,17.5137858 C297.909977,17.1674863 297.909977,16.606024 297.563678,16.2597246 C297.217378,15.9134251 296.655916,15.9134251 296.309617,16.2597246 L291.911701,20.65764 Z" id="Combined-Shape"></path>
        </g>
    </g>
</svg>