<?xml version="1.0" encoding="UTF-8" standalone="no"?>
<svg width="50px" height="42px" viewBox="0 0 50 42" version="1.1" xmlns="http://www.w3.org/2000/svg" xmlns:xlink="http://www.w3.org/1999/xlink">
    <!-- Generator: Sketch 43.1 (39012) - http://www.bohemiancoding.com/sketch -->
    <title>Feels</title>
    <desc>Created with Sketch.</desc>
    <defs></defs>
    <g id="Page-1" stroke="none" stroke-width="1" fill="none" fill-rule="evenodd">
        <g id="Home" transform="translate(-67.000000, -477.000000)">
            <g id="Feels" transform="translate(67.000000, 477.000000)">
                <path d="M48.5924762,18.2307619 C49.9115238,29.1152664 45.6748571,38.5776389 27.1029524,40.8126209 C8.37009524,43.0670581 2.15533333,34.8621594 0.836285714,23.977655 C-0.482761905,13.0931506 9.13866667,2.98306029 22.3258095,1.39579605 C35.5134286,-0.19099368 47.2734286,7.34625752 48.5924762,18.2307619" id="Fill-1" fill="#FFFFFF"></path>
                <g id="Group-5" transform="translate(0.000000, 0.135855)" fill="#B5C8C9">
                    <path d="M25.8146667,1.76160233 C24.6946667,1.76160233 23.5594286,1.82850943 22.4118095,1.9665943 C16.1984762,2.71443539 10.6041905,5.40922572 6.65942857,9.55414446 C2.74942857,13.6625253 0.933714286,18.706182 1.54561905,23.7564819 C2.26371429,29.6841665 4.33466667,33.8931453 7.87657143,36.6235245 C12.0832381,39.8659091 18.5227619,40.9924159 27.0170476,39.9703032 C42.6075238,38.0940572 49.4327619,30.9663154 47.8832381,18.1804155 C46.7275238,8.64401806 37.1570476,1.76160233 25.8146667,1.76160233 M21.3099048,41.7578142 C15.2594286,41.7578142 10.4622857,40.4163505 7.00228571,37.7490823 C3.1427619,34.7738515 0.893714286,30.2526396 0.127047619,23.9268341 C-0.536761905,18.4485185 1.41514286,12.9963014 5.6227619,8.57426384 C9.79609524,4.18923876 15.6975238,1.34070445 22.240381,0.553478331 C35.7994286,-1.07649258 47.9375238,6.753062 49.3018095,18.0095889 C50.9432381,31.5561419 43.5032381,39.4198618 27.1884762,41.3834191 C25.1141905,41.6330159 23.1537143,41.7578142 21.3099048,41.7578142" id="Fill-3"></path>
                </g>
                <path d="M20.6058571,19.4502269 C21.1639524,22.5573738 17.5725238,21.4033449 13.5272857,22.124613 C9.48252381,22.845881 6.51538095,25.1695979 5.9577619,22.062451 C5.39966667,18.9553042 8.22633333,15.8519535 12.2715714,15.1306854 C16.3163333,14.4089428 20.0477619,16.3430801 20.6058571,19.4502269" id="Fill-6" fill="#FFFFFF"></path>
                <path d="M13.965,15.6909493 C13.4535714,15.6909493 12.9288095,15.7365031 12.397381,15.8309323 C10.5954762,16.1526558 9.00452381,16.9863847 7.91738095,18.1802732 C6.87690476,19.3224391 6.43071429,20.6563105 6.66071429,21.9370358 C6.74547619,22.4082326 6.88928571,22.7076538 7.08880952,22.8272324 C7.5697619,23.1157397 8.77357143,22.7304307 10.0469048,22.3223448 C11.0383333,22.004892 12.1621429,21.645207 13.4016667,21.4240814 C14.6407143,21.2029558 15.8202381,21.1521823 16.8607143,21.1075775 C18.197381,21.0496863 19.4602381,20.9955912 19.8111905,20.5585597 C19.9569048,20.3772936 19.987381,20.0470288 19.902619,19.575832 C19.4859524,17.2549622 16.9669048,15.6909493 13.965,15.6909493 M7.55261905,24.3509112 C7.11214286,24.3509112 6.71261905,24.2626508 6.35261905,24.0472194 C5.77642857,23.70177 5.41738095,23.0939118 5.25452381,22.1875816 C4.945,20.4631815 5.51452381,18.6998709 6.8597619,17.2231694 C8.15738095,15.7981905 10.035,14.8064469 12.1454762,14.4296793 C16.5721429,13.6415041 20.682619,15.8366265 21.3088095,19.3248117 C21.4716667,20.2306674 21.3464286,20.9253625 20.9264286,21.4482818 C20.1697619,22.3897264 18.7369048,22.4514138 16.9221429,22.5297094 C15.9269048,22.572416 14.7983333,22.6212914 13.6530952,22.8253344 C12.5078571,23.0293773 11.4330952,23.3738777 10.4840476,23.678044 C9.35547619,24.0391526 8.38119048,24.3509112 7.55261905,24.3509112" id="Fill-8" fill="#B5C8C9"></path>
                <path d="M42.0589524,17.0776346 C42.6170476,20.1847815 39.025619,19.0307526 34.980381,19.7520207 C30.935619,20.4732887 27.9684762,22.7970056 27.4108571,19.6898587 C26.8527619,16.5827119 29.6794286,13.4793612 33.7246667,12.7580931 C37.7694286,12.0363505 41.5008571,13.9704878 42.0589524,17.0776346" id="Fill-10" fill="#FFFFFF"></path>
                <path d="M35.4228571,13.3176453 C34.9057143,13.3176453 34.3790476,13.3641481 33.8504762,13.4585772 C32.0485714,13.7798262 30.457619,14.6140297 29.3704762,15.8074436 C28.33,16.9496096 27.8838095,18.2839555 28.1138095,19.5646808 C28.1985714,20.0358776 28.342381,20.3352988 28.5414286,20.4548774 C29.0233333,20.7429101 30.2261905,20.3576011 31.5,19.9499898 C32.4914286,19.6325369 33.6152381,19.2723774 34.8547619,19.0512518 C36.0942857,18.8306007 37.2733333,18.7798272 38.3138095,18.734748 C39.6504762,18.6773313 40.9128571,18.6227616 41.2642857,18.1857301 C41.4095238,18.0049386 41.4404762,17.6741992 41.3557143,17.2030024 C41.1257143,15.9222771 40.2428571,14.8251904 38.8695238,14.1134127 C37.8557143,13.5881208 36.6680952,13.3176453 35.4228571,13.3176453 M29.0057143,21.9785562 C28.5652381,21.9785562 28.1657143,21.8902957 27.8052381,21.6743898 C27.2290476,21.3294149 26.8704762,20.7210823 26.707619,19.8152265 C26.397619,18.0903519 26.967619,16.3270413 28.312381,14.8508144 C29.6104762,13.4258355 31.4880952,12.4336174 33.5985714,12.0573242 C35.71,11.6805566 37.8157143,11.9628951 39.5290476,12.8507191 C41.3042857,13.7708104 42.452381,15.2271075 42.7619048,16.9524567 C42.9247619,17.8583124 42.7995238,18.5530074 42.3790476,19.0759268 C41.6228571,20.0173714 40.1895238,20.0790588 38.3752381,20.1573543 C37.38,20.200061 36.2514286,20.2484619 35.1061905,20.4529793 C33.9614286,20.6570223 32.8857143,21.0010482 31.9371429,21.3052145 C30.8085714,21.6667976 29.8342857,21.9785562 29.0057143,21.9785562" id="Fill-12" fill="#B5C8C9"></path>
                <path d="M17.516619,31.8266648 C17.516619,34.4488538 15.3832857,36.5746965 12.7518571,36.5746965 C10.1199524,36.5746965 7.98661905,34.4488538 7.98661905,31.8266648 C7.98661905,29.2044758 10.1199524,27.0786331 12.7518571,27.0786331 C15.3832857,27.0786331 17.516619,29.2044758 17.516619,31.8266648" id="Fill-14" fill="#FFE0E0"></path>
                <path d="M44.6594762,27.0784908 C44.6594762,29.7006798 42.5261429,31.8265225 39.8947143,31.8265225 C37.2628095,31.8265225 35.1294762,29.7006798 35.1294762,27.0784908 C35.1294762,24.4563018 37.2628095,22.3304591 39.8947143,22.3304591 C42.5261429,22.3304591 44.6594762,24.4563018 44.6594762,27.0784908" id="Fill-16" fill="#FFE0E0"></path>
                <path d="M18.2907619,19.248177 C18.2907619,19.7687237 17.8674286,20.1905706 17.3450476,20.1905706 C16.8226667,20.1905706 16.3993333,19.7687237 16.3993333,19.248177 C16.3993333,18.7276302 16.8226667,18.3057833 17.3450476,18.3057833 C17.8674286,18.3057833 18.2907619,18.7276302 18.2907619,19.248177" id="Fill-18" fill="#B5C8C9"></path>
                <path d="M39.2566667,16.9361332 C39.2566667,17.45668 38.8333333,17.8785269 38.3109524,17.8785269 C37.7885714,17.8785269 37.3652381,17.45668 37.3652381,16.9361332 C37.3652381,16.4155865 37.7885714,15.9937396 38.3109524,15.9937396 C38.8333333,15.9937396 39.2566667,16.4155865 39.2566667,16.9361332" id="Fill-20" fill="#B5C8C9"></path>
                <path d="M22.4911429,28.0659637 C22.806381,29.1981647 22.9744762,30.3906296 22.9744762,31.6224795 C22.9744762,32.3836071 22.9101905,33.1295502 22.7868571,33.8550889" id="Fill-22" fill="#FFFFFF"></path>
                <path d="M22.788,34.5671513 C22.7484762,34.5671513 22.7084762,34.5638297 22.668,34.5571864 C22.2789524,34.4917028 22.0170476,34.123951 22.0827619,33.736744 C22.2008571,33.0425235 22.260381,32.3312203 22.260381,31.6227642 C22.260381,30.4801238 22.1065714,29.3474482 21.8027619,28.2560558 C21.6970476,27.87739 21.9199048,27.4849633 22.300381,27.3800947 C22.6799048,27.2757006 23.0737143,27.4968262 23.1794286,27.875492 C23.5175238,29.0907337 23.6889524,30.3515293 23.6889524,31.6227642 C23.6889524,32.4104649 23.6222857,33.2014872 23.4913333,33.9740032 C23.4322857,34.3213507 23.1299048,34.5671513 22.788,34.5671513" id="Fill-24" fill="#B5C8C9"></path>
                <path d="M29.9211429,26.4913216 C29.9306667,27.6662293 30.0982857,28.8586942 30.4387619,30.0430923 C30.6487619,30.7747998 30.916381,31.47424 31.2354286,32.1380913" id="Fill-26" fill="#FFFFFF"></path>
                <path d="M31.2359524,32.850296 C30.9692857,32.850296 30.7140476,32.7012973 30.5911905,32.4455318 C30.2516667,31.7389738 29.9692857,30.9963524 29.7516667,30.239021 C29.4007143,29.0171359 29.217381,27.7582385 29.2069048,26.4969684 C29.2035714,26.1040671 29.5207143,25.7828181 29.9154762,25.7794965 L29.9211905,25.7794965 C30.3130952,25.7794965 30.6321429,26.0945767 30.6354762,26.48558 C30.6445238,27.617781 30.8092857,28.7485585 31.1254762,29.8470687 C31.3207143,30.5284772 31.5745238,31.1961247 31.8797619,31.8310304 C32.0497619,32.1854957 31.8997619,32.6106642 31.5435714,32.7805418 C31.4445238,32.8279937 31.3392857,32.850296 31.2359524,32.850296" id="Fill-28" fill="#B5C8C9"></path>
                <path d="M22.7328571,30.9606212 C22.7328571,30.9606212 25.2438095,31.7468983 27.1809524,31.2747524 C29.1185714,30.8026065 30.257619,29.3406152 30.257619,29.3406152" id="Fill-30" fill="#FFFFFF"></path>
                <path d="M25.7846667,32.136905 C24.1308571,32.136905 22.6022857,31.6657082 22.5189524,31.6396097 L22.9465714,30.2815378 C22.9694286,30.2886556 25.2960952,31.0013823 27.0113333,30.5833316 C28.6689524,30.1795164 29.6846667,28.9144501 29.6946667,28.9021127 L30.8218095,29.7771247 C30.7689524,29.8445063 29.505619,31.4412609 27.3508571,31.9660784 C26.8441905,32.0894532 26.308,32.136905 25.7846667,32.136905" id="Fill-32" fill="#B5C8C9"></path>
            </g>
        </g>
    </g>
</svg>