<?xml version="1.0" encoding="UTF-8" standalone="no"?>
<svg width="45px" height="73px" viewBox="0 0 45 73" version="1.1" xmlns="http://www.w3.org/2000/svg" xmlns:xlink="http://www.w3.org/1999/xlink">
    <!-- Generator: Sketch 43.1 (39012) - http://www.bohemiancoding.com/sketch -->
    <title>Mixed</title>
    <desc>Created with Sketch.</desc>
    <defs>
        <polygon id="path-1" points="9.06566667 0.32989313 0.299 0.32989313 0.299 26.1862145 9.06566667 26.1862145 9.06566667 0.32989313"></polygon>
    </defs>
    <g id="Symbols" stroke="none" stroke-width="1" fill="none" fill-rule="evenodd">
        <g id="Home_Item/Mixed" transform="translate(-56.000000, -6.000000)">
            <g id="Mixed" transform="translate(56.000000, 6.000000)">
                <path d="M24.7046667,59.4239504 L24.7046667,40.9070267 L20.2602222,40.9070267 L20.2602222,59.4239504 C20.2602222,63.3575916 17.3985556,66.7033321 13.5224444,67.3012634 L9.11022222,67.9822252 C7.21466667,68.2747824 5.81577778,69.910874 5.81577778,71.8345076 L5.81577778,71.8345076 L39.1491111,71.8345076 L39.1491111,71.8345076 C39.1491111,69.910874 37.7502222,68.2747824 35.8546667,67.9822252 L31.4424444,67.3012634 C27.5663333,66.7033321 24.7046667,63.3575916 24.7046667,59.4239504" id="Fill-1" fill="#FFFFFF"></path>
                <path d="M6.76244444,70.9983511 L38.2024444,70.9983511 C37.8868889,69.8660153 36.9424444,68.9955878 35.728,68.8083511 L31.3157778,68.1273893 C27.0018889,67.4620305 23.8713333,63.8014427 23.8713333,59.4236718 L23.8713333,41.742626 L21.0935556,41.742626 L21.0935556,59.4236718 C21.0935556,63.8014427 17.963,67.4620305 13.6491111,68.1273893 L9.23688889,68.8083511 C8.02244444,68.9955878 7.078,69.8660153 6.76244444,70.9983511 L6.76244444,70.9983511 Z M39.9824444,72.6701069 L4.98244444,72.6701069 L4.98244444,71.834229 C4.98244444,69.4809542 6.66522222,67.513855 8.98355556,67.1560992 L13.3957778,66.4751374 C16.8902222,65.9362748 19.4268889,62.9705802 19.4268889,59.4236718 L19.4268889,40.0708702 L25.538,40.0708702 L25.538,59.4236718 C25.538,62.9705802 28.0741111,65.9362748 31.5691111,66.4751374 L35.9813333,67.1560992 C38.2996667,67.513855 39.9824444,69.4809542 39.9824444,71.834229 L39.9824444,72.6701069 Z" id="Fill-3" fill="#B5C8C9"></path>
                <path d="M43.2460556,17.1042344 L24.3910556,41.0772115 C23.4177222,42.3148679 21.5471667,42.3148679 20.5738333,41.0772115 L1.71883333,17.1042344 L43.2460556,17.1042344 Z" id="Fill-5" fill="#FFFFFF"></path>
                <path d="M3.4375,17.9402237 L21.2280556,40.5596359 C21.5330556,40.9474832 21.9902778,41.1698267 22.4825,41.1698267 C22.9747222,41.1698267 23.4319444,40.9474832 23.7363889,40.5596359 L41.5275,17.9402237 L3.4375,17.9402237 Z M22.4825,42.8415824 C21.4769444,42.8415824 20.5430556,42.3874221 19.9197222,41.5950099 L0.000277777778,16.2684679 L44.9647222,16.2684679 L25.0452778,41.5950099 C24.4219444,42.3868649 23.4880556,42.8415824 22.4825,42.8415824 L22.4825,42.8415824 Z" id="Fill-7" fill="#B5C8C9"></path>
                <path d="M35.5305,22.5355458 L23.6816111,37.6002939 C23.0699444,38.3782176 21.8949444,38.3782176 21.2832778,37.6002939 L9.43438889,22.5355458 L35.5305,22.5355458 Z" id="Fill-9" fill="#A2E1BD"></path>
                <path d="M9.43444444,0.784610687 L16.5972222,26.1858244" id="Fill-11" fill="#FFFFFF"></path>
                <g id="Group-15" transform="translate(8.333333, 0.227359)">
                    <mask id="mask-2" fill="white">
                        <use xlink:href="#path-1"></use>
                    </mask>
                    <g id="Clip-14"></g>
                    <polygon id="Fill-13" fill="#B5C8C9" mask="url(#mask-2)" points="7.46177778 26.1862145 0.299 0.785000763 1.90288889 0.329725954 9.06566667 25.7314969"></polygon>
                </g>
                <path d="M15.7637222,10.6410038 C15.7637222,12.7150954 14.0876111,14.3968817 12.0192778,14.3968817 C9.9515,14.3968817 8.27538889,12.7150954 8.27538889,10.6410038 C8.27538889,8.56691221 9.9515,6.88512595 12.0192778,6.88512595 C14.0876111,6.88512595 15.7637222,8.56691221 15.7637222,10.6410038" id="Fill-16" fill="#FFFFFF"></path>
                <path d="M12.0196111,7.72117099 C10.4146111,7.72117099 9.1085,9.03127023 9.1085,10.641171 C9.1085,12.2510718 10.4146111,13.5606137 12.0196111,13.5606137 C13.6246111,13.5606137 14.9301667,12.2510718 14.9301667,10.641171 C14.9301667,9.03127023 13.6246111,7.72117099 12.0196111,7.72117099 M12.0196111,15.2323695 C9.49572222,15.2323695 7.44183333,13.1727664 7.44183333,10.641171 C7.44183333,8.10901832 9.49572222,6.04941527 12.0196111,6.04941527 C14.5435,6.04941527 16.5968333,8.10901832 16.5968333,10.641171 C16.5968333,13.1727664 14.5435,15.2323695 12.0196111,15.2323695" id="Fill-18" fill="#B5C8C9"></path>
            </g>
        </g>
    </g>
</svg>