<?xml version="1.0" encoding="UTF-8" standalone="no"?>
<svg width="40px" height="64px" viewBox="0 0 40 64" version="1.1" xmlns="http://www.w3.org/2000/svg" xmlns:xlink="http://www.w3.org/1999/xlink">
    <!-- Generator: Sketch 43.1 (39012) - http://www.bohemiancoding.com/sketch -->
    <title>Wine</title>
    <desc>Created with Sketch.</desc>
    <defs>
        <polygon id="path-1" points="20.0000317 31.049505 40 31.049505 40 0 6.34920635e-05 0 6.34920635e-05 31.049505"></polygon>
    </defs>
    <g id="Symbols" stroke="none" stroke-width="1" fill="none" fill-rule="evenodd">
        <g id="Home_Item/Wine" transform="translate(-63.000000, -14.000000)">
            <g id="Wine" transform="translate(63.000000, 14.000000)">
                <path d="M2.48336508,1.26732673 C2.10622222,2.53465347 1.90495238,5.17639604 1.90495238,7.51334653 C1.90495238,22.3613465 6.98431746,34.1386139 20.0001905,34.1386139 C33.0160635,34.1386139 38.0954286,22.4912475 38.0954286,7.64324752 C38.0954286,5.30629703 37.8935238,2.53465347 37.516381,1.26732673 L2.48336508,1.26732673 Z" id="Fill-1" fill="#FFFFFF"></path>
                <path d="M3.2415873,1.9009901 C3.01174603,3.16831683 2.85746032,5.28728713 2.85746032,7.35493069 C2.85746032,29.7631683 13.5977778,33.1089109 20.0003175,33.1089109 C34.915873,33.1089109 37.1431746,17.029703 37.1431746,7.44554455 C37.1431746,5.33291089 36.987619,3.17782178 36.7577778,1.9009901 L3.2415873,1.9009901 Z M20.0003175,35.009901 C7.89492063,35.009901 0.952698413,24.9302178 0.952698413,7.35493069 C0.952698413,5.06613861 1.1431746,2.11453465 1.57047619,0.679920792 L1.77238095,0 L38.227619,0 L38.4295238,0.679920792 C38.8542857,2.10693069 39.0479365,5.18716832 39.0479365,7.44554455 C39.0479365,24.9631683 32.1050794,35.009901 20.0003175,35.009901 L20.0003175,35.009901 Z" id="Fill-3" fill="#B5C8C9"></path>
                <path d="M5.25619048,13.5989228 C6.34888889,23.1285861 9.83206349,30.8104871 19.9298413,30.8104871 C30.027619,30.8104871 33.6504762,22.9175762 34.6028571,13.6667248 L5.25619048,13.5989228 Z" id="Fill-5" fill="#FFAEC3"></path>
                <path d="M22.5396825,48.937505 L22.5396825,33.9013069 L17.4603175,33.9013069 L17.4603175,48.937505 C17.4603175,53.4105347 14.1898413,57.2150495 9.76,57.8949703 L4.71746032,58.6693069 C2.55111111,59.0019802 0.952380952,60.8624158 0.952380952,63.0498218 L0.952380952,63.0498218 L39.047619,63.0498218 L39.047619,63.0498218 C39.047619,60.8624158 37.4488889,59.0019802 35.2825397,58.6693069 L30.24,57.8949703 C25.8101587,57.2150495 22.5396825,53.4105347 22.5396825,48.937505" id="Fill-7" fill="#FFFFFF"></path>
                <g id="Group-11" transform="translate(0.000000, 32.950495)">
                    <mask id="mask-2" fill="white">
                        <use xlink:href="#path-1"></use>
                    </mask>
                    <g id="Clip-10"></g>
                    <path d="M2.03434921,29.1485149 L37.9657778,29.1485149 C37.6051429,27.8609109 36.5257778,26.8711287 35.1378413,26.6582178 L30.0953016,25.8838812 C25.1651429,25.1272871 21.5873651,20.9647525 21.5873651,15.9866931 L21.5873651,1.9009901 L18.4127619,1.9009901 L18.4127619,15.9866931 C18.4127619,20.9647525 14.8349841,25.1272871 9.9048254,25.8838812 L4.86228571,26.6582178 C3.47434921,26.8711287 2.39498413,27.8609109 2.03434921,29.1485149 L2.03434921,29.1485149 Z M40.0000635,31.049505 L6.34920635e-05,31.049505 L6.34920635e-05,30.0990099 C6.34920635e-05,27.4230495 1.9232381,25.1862178 4.5727619,24.7794059 L9.61530159,24.0050693 C13.6089524,23.3923168 16.508,20.0199604 16.508,15.9866931 L16.508,0 L23.492127,0 L23.492127,15.9866931 C23.492127,20.0199604 26.3905397,23.3923168 30.3848254,24.0050693 L35.4273651,24.7794059 C38.0768889,25.1862178 40.0000635,27.4230495 40.0000635,30.0990099 L40.0000635,31.049505 Z" id="Fill-9" fill="#B5C8C9" mask="url(#mask-2)"></path>
                </g>
                <path d="M28.4655873,4.77889901 L28.4655873,4.77889901 C27.1271746,4.77889901 26.0319365,5.87196832 26.0319365,7.20773069 L26.0319365,15.0759287 C26.0319365,16.4116911 27.1271746,17.5047604 28.4655873,17.5047604 L28.4655873,17.5047604 C29.804,17.5047604 30.8992381,16.4116911 30.8992381,15.0759287 L30.8992381,7.20773069 C30.8992381,5.87196832 29.804,4.77889901 28.4655873,4.77889901" id="Fill-12" fill="#FFEB92"></path>
            </g>
        </g>
    </g>
</svg>